# xmcd CD database file
#
# Track frame offsets:
#	150
#	14277
#	29550
#	40020
#	52435
#	66645
#	86357
#	99100
#	112502
#	128452
#	144502
#	160612
#
# Disc length: 2297 seconds
#
# Revision: 0
# Processed by: cddbd v1.4PL0 Copyright (c) Steve Scherf et al.
# Submitted via: CDex 1.40Beta8
#
DISCID=9108f70c
DTITLE=Anson Funderburgh and the Rockets  - Rack 'Em Up
DYEAR=1989
DGENRE=Blues
TTITLE0=Tell Me What Have I Done Wrong?
TTITLE1=Since We've Been Together
TTITLE2=Rack 'Em Up
TTITLE3=Mama and Papa
TTITLE4=20 Miles
TTITLE5=Hold That Train, Conductor
TTITLE6=I'm Your Professor
TTITLE7=I'll Keep On Trying
TTITLE8=All Your Love
TTITLE9=Are You Out There
TTITLE10=Lemonade
TTITLE11=Meanstreak
EXTD=YEAR: 1989 ID3G: 0
EXTT0=
EXTT1=
EXTT2=
EXTT3=
EXTT4=
EXTT5=
EXTT6=
EXTT7=
EXTT8=
EXTT9=
EXTT10=
EXTT11=
PLAYORDER=
